Patient4_TMGait_0pt7_01_left_25_EMG.mot
version=1
nRows=33
nColumns=33
inDegrees=no
endheader
time	1LAddLong	2LGlutMax	3LGlutMed	4LIliopsoas	5LSemiMemb	6LBicFemLong	7LRecFem	8LVastMed	9LVastLat	10LGasMed	11LTibAnt	12lTibPost	13LPeroneusLong	14LSol	15LExtDigLong	16LFlexDigLong	17RAddLong	18RGlutMax	19RGlutMed	20RIliopsoas	21RSemiMemb	22RBicFemLong	23RRecFem	24RVastMed	25RVastLat	26RGasMed	27RTibAnt	28RTibPost	29RPeroneusLong	30RSol	31RExtDigLong	32RFlexDigLong
28.79	-0.005493	0.33783	-0.020599	-0.014038	-0.009766	-0.02182	0.12573	-0.058136	0.23086	-0.04364	-0.022125	0.014801	0.1384	0.062408	-0.16235	0.016785	-0.020294	-0.2565	-0.065613	-0.033569	-0.046844	0.088806	-0.44235	0.20538	0.62714	-0.026398	-0.00946	-0.001984	-0.67078	-0.14999	0.00061	-0.005951
28.791	-0.001221	0.28519	-0.019531	-0.010681	-0.010071	-0.038757	0.12558	0.00412	0.21866	0.022278	0.045929	0.021515	0.033722	-0.011292	-0.016632	-0.002747	-0.008087	-0.35217	-0.19028	0.066071	0.005646	0.026093	-0.19775	0.25131	0.56915	-0.024567	-0.01236	-0.010681	-0.2681	-0.16464	0.000153	-0.007782
28.792	-0.002899	0.28153	-0.064392	-0.014496	-0.007935	-0.024414	0.12238	0.003815	0.20859	0.010681	-0.085907	0.017548	0.02655	-0.049133	-0.032654	-0.02243	0.010834	-0.38086	-0.65918	0.093536	0.10986	-0.030975	0.045013	0.15106	0.392	-0.011292	-0.007477	-0.010071	0.19669	-0.21652	0.00061	-0.006104
28.793	0.003204	0.24857	-0.048065	-0.021362	-0.00061	-0.023956	0.098419	0.013275	0.22018	-0.018768	-0.224	0.02243	0.062866	-0.054932	0.21393	-0.014801	-0.000916	-0.43854	-0.82428	0.11459	0.17929	-0.058289	0.073242	0.038757	0.20264	0.005035	-0.053558	-0.009613	0.71533	-0.18204	-0.003815	-0.009308
28.794	-0.000763	0.22629	-0.062714	-0.029602	-0.007935	-0.032806	0.092926	0.017242	0.21744	-0.024719	-0.19348	0.021362	0.059814	-0.1181	0.050964	-0.002136	0.027618	-0.4512	-0.57953	0.12177	0.004272	-0.043335	0.078735	-0.13199	0.075378	0.044708	-0.075531	-0.010376	0.9874	-0.12451	-0.002899	-0.000458
28.795	0.006714	0.19226	-0.047607	0.003815	0.002136	-0.032196	0.088959	0.010834	0.20569	-0.02243	-0.082245	0.028534	0.024109	-0.14862	0.092926	-0.007629	0.005951	-0.41168	0.22934	0.052948	-0.23178	-0.11993	-0.0914	-0.095673	-0.056915	0.055237	0.028381	-0.016937	0.32333	-0.015717	-0.00061	-0.002136
28.796	0.009766	0.21805	-0.050354	0.018768	-0.003052	-0.038757	0.086365	0.019684	0.19821	-0.03418	0.024872	0.028839	0.011292	-0.088806	-0.010376	0.01236	-0.007782	-0.36179	0.85068	0.041046	-0.082397	-0.21347	-0.076141	0.002289	0.027313	-0.006714	0.11795	-0.032654	-1.5129	-0.007782	-0.001221	-0.006561
28.797	0.003967	0.23086	-0.10483	0.029907	-0.017242	-0.034332	0.080414	0.006714	0.20233	-0.032349	-0.002747	0.018768	0.027924	-0.088501	0.10529	0.009766	0.002136	-0.35355	0.39475	0.076447	0.045166	-0.1828	-0.082855	0.006104	-0.011902	-0.006561	0.18204	-0.030518	-1.2532	0.003967	0	-0.00061
28.798	0.006104	0.26215	-0.045929	0.011597	-0.014648	-0.049744	0.058899	0.001831	0.19562	-0.039215	-0.048981	0.033417	0.005798	-0.10101	0.056763	-0.001984	0.006561	-0.27023	0.25589	0.1474	0.039825	-0.16159	-0.11398	-0.024567	0.005493	0.067596	0.14145	-0.023956	0.43503	0.037842	0.001526	-0.006409
28.799	0.003815	0.26459	-0.045624	0.012817	-0.012665	-0.032806	0.046844	0.008392	0.19394	-0.03418	-0.067749	0.027924	0.005951	-0.079498	0.037537	-0.002441	0.007782	-0.24674	-0.18249	0.13138	-0.013123	-0.12741	-0.086823	-0.076904	-0.082703	0.042267	-0.001526	-0.028381	1.156	0.25833	0.002441	-0.001526
28.8	0.000916	0.23209	0.053406	0.011902	-0.012207	-0.039978	0.046082	0.016632	0.18448	-0.042267	-0.01709	0.032043	0.030823	-0.095978	-0.029907	0.009003	0.015564	-0.22995	0.052948	0.002289	-0.14465	-0.096436	-0.13443	-0.16052	-0.32761	-0.012817	0.003815	-0.015411	-0.98236	0.19989	-0.001221	-0.003357
28.801	-0.002594	0.23438	0.098572	0.007935	-0.00473	-0.047302	0.041656	0.016479	0.19073	-0.030365	0.021362	0.023956	0.04364	-0.14023	0.016632	0.004578	0.0354	-0.25253	-0.17563	-0.014343	-0.04364	-0.14801	0.035858	-0.1915	-0.63568	-0.037689	-0.056152	0.11566	-0.88013	0.003662	0.002899	-0.004578
28.802	-0.016174	0.22583	0.019226	0.001068	-0.011292	-0.043488	0.020905	0.013275	0.16449	-0.014801	0.023956	0.028687	0.072937	-0.10315	0.070343	0.003052	0.038452	-0.24216	-0.15854	-0.022583	0.067139	-0.065613	0.38223	-0.055847	-0.70908	-0.025635	-0.076447	-0.028534	-0.069275	-0.1387	0.00061	-0.002289
28.803	-0.001373	0.22369	-0.040283	-0.000916	-0.007629	-0.037079	0.010071	0.003204	0.14526	-0.005341	0.008698	0.035095	0.039978	-0.079041	0.03952	0.003967	0.034637	-0.34027	-0.26657	-0.014038	-0.27069	-0.084534	0.35263	-0.027161	-0.38452	-0.033569	0.026093	-0.033875	1.7757	-0.064545	0.001221	-0.00412
28.804	0.002289	0.24979	-0.018616	-0.005646	-0.008087	-0.068665	0.018311	0.003204	0.16068	0.003662	0.02243	0.030365	0.025787	-0.040894	0.016174	0.010681	-0.016632	-0.29312	-0.17502	0.010986	-0.36667	-0.058441	0.19638	0.023499	-0.12573	-0.007172	0.059662	0.063019	0.961	0.055389	0.001068	-0.001526
28.805	-0.002594	0.25299	0.004883	-0.001526	0.000305	-0.045166	0.022125	-0.001068	0.16113	-0.015564	-0.002594	0.036926	0.020752	-0.040436	0.005798	0.012207	-0.047607	-0.24719	-0.46738	0.044708	-0.094757	-0.010834	-0.12878	0.08316	0.16373	0.019684	-0.073242	0.01297	-2.2932	0.044098	-0.005493	0.001221
28.806	0.003815	0.26215	-0.024567	0.006714	-0.001984	-0.076904	0.013123	0.016632	0.16617	-0.023804	0.016479	0.0383	-0.005035	-0.016174	0.027161	0.01297	-0.039368	-0.26016	-0.52948	-0.053558	0.1297	-0.074921	-0.17746	-0.036774	0.18555	0.026093	-0.079498	-0.027008	-1.4258	-0.003815	-0.000763	-0.007324
28.807	-0.001984	0.26154	-0.0383	0.001984	-0.011292	-0.072784	0.007172	0.019226	0.14404	-0.030823	0.079498	0.023651	-0.002747	0.003052	0.092316	0.010834	-0.020447	-0.23651	-0.10361	0.002747	0.12314	-0.14343	-0.10223	-0.32044	0.15823	0.018616	-0.009155	-0.13016	1.2119	-0.28153	-0.001984	-0.005951
28.808	-0.001373	0.27634	-0.036163	0.006866	-0.004578	-0.064545	0.008545	0.006714	0.14435	-0.045929	0.093536	0.031586	0.04715	0.006714	0.15793	0.014191	-0.024567	-0.10803	0.4361	0.028687	0.009766	-0.1445	0.02121	-0.26474	0.13443	0.011292	0.177	-0.32532	0.39307	-0.078583	0.000763	-0.006104
28.809	0.008392	0.28366	-0.032501	0.019226	-0.01236	-0.044861	0.010223	-0.000916	0.14328	-0.042419	-0.028381	0.032196	0.051575	-0.007629	0.12787	0.008698	-0.024872	-0.092316	0.30853	0.038147	-0.012665	-0.083923	0.068054	-0.21622	0.19318	-0.000916	0.14313	0.1506	0.21347	0.17883	0.000305	-0.006866
28.81	0.003052	0.26947	-0.035095	0.007782	-0.00412	-0.06134	-0.006866	0.010681	0.14999	-0.038147	-0.065002	0.034943	0.068665	-0.032654	0.11093	0.009308	-0.034027	-0.11169	-0.052185	0.034637	0.033875	0.12054	0.02121	-0.075226	0.2356	-0.033264	-0.1355	0.1329	0.88119	-0.02594	-0.002441	-0.007019
28.811	0.003967	0.29617	-0.015869	-0.012207	-0.006409	-0.064392	0.001984	0.001221	0.15427	-0.023193	0.042725	0.027771	0.020447	-0.041504	0.19333	0.010223	-0.021973	-0.17319	-0.33157	0.019531	0.043335	0.20645	0.10193	0.11139	0.22492	-0.048218	-0.13336	-0.012817	0.93552	-0.24185	0.010834	-0.004578
28.812	0.00946	0.30182	-0.026703	-0.012512	-0.010834	-0.04303	0.006561	0.008392	0.1358	-0.021057	0.014801	0.03479	0.025177	0.013275	0.17303	0.01358	-0.000916	-0.27206	-0.99518	-0.021362	0.042725	0.23407	0.23743	0.34561	0.13565	-0.059662	0.022736	-0.025177	-0.48859	0.18112	-0.000763	-0.007629
28.813	0.007172	0.28	-0.031891	-0.010223	-0.024567	-0.023041	-0.001526	0.00946	0.12619	-0.032806	-0.043335	0.021667	0.06073	-0.011902	0.10773	0.021057	-0.002289	-0.21698	-1.0362	-0.035095	0.023041	0.24597	0.37689	0.35156	-0.024719	-0.06485	0.11627	-0.12253	-0.44037	0.24429	0.001526	-0.009766
28.814	0.010376	0.26825	-0.039215	-0.017242	-0.007172	-0.050354	0.002594	0.006714	0.11887	-0.032349	0.085144	0.03067	0.020752	-0.057526	-0.081787	0.02182	-0.011749	-0.29633	-1.0204	0.005951	-0.006714	0.2449	0.24231	0.24612	-0.14313	0.007782	0.057373	-0.031128	0.032806	0.18707	0	-0.01236
28.815	0.00885	0.24689	-0.03952	-0.003967	-0.010376	-0.045929	-0.022125	0.010986	0.11322	-0.025635	0.1152	0.035248	0.04776	-0.06958	-0.17151	0.027161	-0.054626	-0.36133	-0.85175	0.034027	-0.063782	0.31357	-0.31601	0.092621	-0.18875	0.093536	-0.018616	0.18601	0.20477	0.050354	-0.000916	-0.013123
28.816	0.013885	0.24963	-0.029297	-0.003357	-0.004578	-0.036469	-0.003357	0.007782	0.1297	-0.015869	0.085297	0.023956	0.013733	-0.069275	-0.20889	0.020905	-0.028381	-0.40466	-0.31097	-0.014038	-0.057831	0.23468	-0.20554	0.037994	-0.16663	0.01358	0.078735	0.028687	0.80765	0.26794	0.002747	-0.004272
28.817	0.020599	0.2507	-0.034637	-0.015869	-0.007172	-0.041656	-0.004578	0.005646	0.11749	0.006714	0.024719	0.024414	-0.009613	-0.075684	-0.16052	0.027618	0.015106	-0.35065	-0.057831	-0.074158	0.000458	0.087738	0.077972	0.18463	-0.10574	0.010681	0.16281	-0.078735	-0.159	0.095978	-0.00061	-0.002594
28.818	0.014191	0.26489	-0.032349	-0.005493	0.00061	-0.034943	-0.009003	0.003815	0.12054	-0.024719	-0.031433	0.023499	-0.003357	-0.030975	-0.14297	0.016022	0.026398	-0.38696	0.38528	-0.1062	-0.078583	0.003662	0.01358	0.20401	-0.085449	0.015411	0.079498	-0.13138	-0.43457	-0.1561	0.003815	-0.001373
28.819	0.014801	0.30212	-0.013428	-0.004425	-0.006409	-0.048523	-0.011139	0	0.11597	-0.036926	-0.053406	0.029297	0.063477	-0.03479	-0.15961	0.022736	0.001678	-0.36468	0.30991	-0.097961	-0.15305	-0.050354	0.10422	0.31372	0.034027	0.05127	-0.10254	0.30945	-0.23697	-0.24338	0.001831	0.000916
28.82	0.009308	0.31357	-0.029297	0.014191	-0.016632	-0.061188	-0.024719	-0.001831	0.11917	-0.055389	-0.049896	0.027313	0.073853	-0.048523	-0.13123	0.006714	-0.021667	-0.27145	-0.018768	-0.095978	-0.13351	-0.037231	-0.15045	0.34561	0.14358	0.072479	-0.10498	0.057373	-1.7242	-0.4509	-0.001984	-0.001984
28.821	0.013428	0.30426	-0.026855	0.014343	0.006104	-0.056458	-0.013885	0.000153	0.11688	-0.049744	-0.003815	0.02182	0.036774	-0.057373	-0.079041	0.000458	-0.022278	-0.32333	-0.39841	-0.019836	0.14877	-0.073395	-0.16037	0.066986	0.19287	0.080414	-0.2385	-0.048218	-0.61691	-1.2265	-0.002747	-0.011444
28.822	0.012054	0.28595	-0.047607	0.010071	0.006714	-0.074615	-0.040894	-0.004425	0.12421	-0.04364	-0.025024	0.016937	0.045624	-0.020905	-0.055695	0.0177	0.005341	-0.38788	-0.45929	0.009613	0.24384	-0.12329	0.04715	0.11231	0.26749	0.005646	-0.14954	-0.095062	0.29511	-1.3132	-0.000305	-0.013123
